<svg width="120" height="120" viewBox="0 0 120 120" fill="none" xmlns="http://www.w3.org/2000/svg">
<g clip-path="url(#clip0_546_64)">
<path d="M100 0H20C8.9543 0 0 8.9543 0 20V100C0 111.046 8.9543 120 20 120H100C111.046 120 120 111.046 120 100V20C120 8.9543 111.046 0 100 0Z" fill="#111827"/>
<path d="M100 0H20C8.9543 0 0 8.9543 0 20V100C0 111.046 8.9543 120 20 120H100C111.046 120 120 111.046 120 100V20C120 8.9543 111.046 0 100 0Z" fill="#111827"/>
<path d="M118.875 15.375L82.5625 51.6875L67 36.125L90.24 12.885C90.24 12.885 105.647 18.2281 113.688 10.1875L118.875 15.375Z" fill="#F23B3B"/>
<path d="M104.35 35.0352L148.599 79.2327C149.455 80.156 149.984 81.3958 149.984 82.7602C149.984 84.1245 149.46 85.3643 148.599 86.2928C147.66 87.2422 146.353 87.8335 144.911 87.8335C143.599 87.8335 142.4 87.3459 141.487 86.547L97.0356 42.3547L104.35 35.0352Z" fill="#F23B3B"/>
<path d="M40.6679 107.318C54.8439 107.318 66.3358 95.6726 66.3358 81.3074C66.3358 66.9422 54.8439 55.2969 40.6679 55.2969C26.4919 55.2969 15 66.9422 15 81.3074C15 95.6726 26.4919 107.318 40.6679 107.318Z" stroke="#FC9B00" stroke-width="7" stroke-linecap="round"/>
<path d="M40.6719 66.4414V85.0203L51.6724 92.4519" stroke="#FC9B00" stroke-width="7" stroke-linecap="round" stroke-linejoin="round"/>
<path d="M62.6668 46L70.0005 53.4316L66.3337 57.1474L59 49.7158L62.6668 46Z" fill="#FC9B00"/>
</g>
<defs>
<clipPath id="clip0_546_64">
<rect width="120" height="120" fill="white"/>
</clipPath>
</defs>
</svg>
