<svg width="24" height="24" viewBox="0 0 24 24" fill="none" xmlns="http://www.w3.org/2000/svg">
<path d="M21 12.8108C20.8424 14.5166 20.2022 16.1423 19.1543 17.4975C18.1065 18.8528 16.6944 19.8816 15.0832 20.4636C13.4719 21.0456 11.7283 21.1566 10.0563 20.7838C8.38426 20.411 6.85298 19.5697 5.64164 18.3584C4.43031 17.147 3.589 15.6157 3.21618 13.9437C2.84336 12.2717 2.95443 10.5281 3.53641 8.91685C4.11839 7.30564 5.1472 5.8935 6.50246 4.84567C7.85772 3.79783 9.48337 3.15764 11.1892 3C10.3777 3.59985 9.70511 4.36774 9.21744 5.25125C8.72977 6.13475 8.43847 7.11308 8.36343 8.11945C8.28838 9.12581 8.43135 10.1365 8.78258 11.0826C9.13381 12.0287 9.68503 12.8878 10.3986 13.6014C11.1122 14.315 11.9713 14.8662 12.9174 15.2174C13.8635 15.5686 14.8742 15.7116 15.8806 15.6366C16.8869 15.5615 17.8652 15.2702 18.7488 14.7826C19.6323 14.2949 20.4001 13.6223 21 12.8108Z" fill="black"/>
</svg>
